<svg xmlns="http://www.w3.org/2000/svg" viewBox="0 0 500 500"><g id="freepik--background-complete--inject-1"><rect y="382.4" width="500" height="0.25" style="fill:#ebebeb"></rect><path d="M237,337.8H43.91a5.71,5.71,0,0,1-5.7-5.71V60.66A5.71,5.71,0,0,1,43.91,55H237a5.71,5.71,0,0,1,5.71,5.71V332.09A5.71,5.71,0,0,1,237,337.8ZM43.91,55.2a5.46,5.46,0,0,0-5.45,5.46V332.09a5.46,5.46,0,0,0,5.45,5.46H237a5.47,5.47,0,0,0,5.46-5.46V60.66A5.47,5.47,0,0,0,237,55.2Z" style="fill:#ebebeb"></path><path d="M453.31,337.8H260.21a5.72,5.72,0,0,1-5.71-5.71V60.66A5.72,5.72,0,0,1,260.21,55h193.1A5.71,5.71,0,0,1,459,60.66V332.09A5.71,5.71,0,0,1,453.31,337.8ZM260.21,55.2a5.47,5.47,0,0,0-5.46,5.46V332.09a5.47,5.47,0,0,0,5.46,5.46h193.1a5.47,5.47,0,0,0,5.46-5.46V60.66a5.47,5.47,0,0,0-5.46-5.46Z" style="fill:#ebebeb"></path><rect x="423.9" y="398.49" width="26" height="0.25" style="fill:#ebebeb"></rect><rect x="311" y="401.21" width="45.03" height="0.25" style="fill:#ebebeb"></rect><rect x="362.11" y="389.21" width="60.79" height="0.25" style="fill:#ebebeb"></rect><rect x="52.46" y="390.89" width="19.23" height="0.25" style="fill:#ebebeb"></rect><rect x="80.6" y="390.89" width="55.29" height="0.25" style="fill:#ebebeb"></rect><rect x="169.67" y="395.11" width="74.47" height="0.25" style="fill:#ebebeb"></rect><rect x="80.6" y="152.95" width="101.71" height="229.45" style="fill:#f5f5f5"></rect><rect x="90.14" y="161" width="82.61" height="213.34" style="fill:#e6e6e6"></rect><rect x="95.83" y="171" width="71.25" height="4.88" style="fill:#fafafa"></rect><rect x="95.83" y="182.09" width="71.25" height="4.88" style="fill:#fafafa"></rect><rect x="95.83" y="193.17" width="71.25" height="4.88" style="fill:#fafafa"></rect><rect x="95.83" y="204.26" width="71.25" height="4.88" style="fill:#fafafa"></rect><rect x="95.83" y="215.35" width="71.25" height="4.88" style="fill:#fafafa"></rect><rect x="95.83" y="226.43" width="71.25" height="4.88" style="fill:#fafafa"></rect><rect x="95.83" y="237.52" width="71.25" height="4.88" style="fill:#fafafa"></rect><rect x="95.83" y="248.6" width="71.25" height="4.88" style="fill:#fafafa"></rect><rect x="95.83" y="259.69" width="71.25" height="4.88" style="fill:#fafafa"></rect><rect x="95.83" y="270.78" width="71.25" height="4.88" style="fill:#fafafa"></rect><rect x="95.83" y="281.86" width="71.25" height="4.88" style="fill:#fafafa"></rect><rect x="95.83" y="292.95" width="71.25" height="4.88" style="fill:#fafafa"></rect><rect x="95.83" y="304.03" width="71.25" height="4.88" style="fill:#fafafa"></rect><rect x="95.83" y="315.12" width="71.25" height="4.88" style="fill:#fafafa"></rect><rect x="95.83" y="326.21" width="71.25" height="4.88" style="fill:#fafafa"></rect><rect x="95.83" y="337.29" width="71.25" height="4.88" style="fill:#fafafa"></rect><rect x="95.83" y="348.38" width="71.25" height="4.88" style="fill:#fafafa"></rect><rect x="95.83" y="359.46" width="71.25" height="4.88" style="fill:#fafafa"></rect><rect x="52.46" y="152.95" width="28.14" height="229.45" transform="translate(133.06 535.34) rotate(180)" style="fill:#e6e6e6"></rect><rect x="88.51" y="149" width="79.82" height="3.95" style="fill:#f0f0f0"></rect><rect x="66.43" y="149" width="22.08" height="3.95" transform="translate(154.94 301.95) rotate(180)" style="fill:#e0e0e0"></rect><ellipse cx="75.55" cy="162.39" rx="3.05" ry="7.44" style="fill:#f5f5f5"></ellipse><path d="M53.46,162.39c0,4.11.92,7.44,2.06,7.44s2.06-3.33,2.06-7.44S56.66,155,55.52,155,53.46,158.28,53.46,162.39Z" style="fill:#f5f5f5"></path><ellipse cx="75.55" cy="372.95" rx="3.05" ry="7.44" style="fill:#f5f5f5"></ellipse><path d="M53.46,373c0,4.12.92,7.45,2.06,7.45s2.06-3.33,2.06-7.45-.92-7.44-2.06-7.44S53.46,368.84,53.46,373Z" style="fill:#f5f5f5"></path><rect x="292.64" y="204.12" width="79.02" height="178.27" style="fill:#f5f5f5"></rect><rect x="300.05" y="210.38" width="64.19" height="165.76" style="fill:#e6e6e6"></rect><rect x="304.47" y="218.15" width="55.36" height="3.79" style="fill:#fafafa"></rect><rect x="304.47" y="226.77" width="55.36" height="3.79" style="fill:#fafafa"></rect><rect x="304.47" y="235.38" width="55.36" height="3.79" style="fill:#fafafa"></rect><rect x="304.47" y="243.99" width="55.36" height="3.79" style="fill:#fafafa"></rect><rect x="304.47" y="252.61" width="55.36" height="3.79" style="fill:#fafafa"></rect><rect x="304.47" y="261.22" width="55.36" height="3.79" style="fill:#fafafa"></rect><rect x="304.47" y="269.83" width="55.36" height="3.79" style="fill:#fafafa"></rect><rect x="304.47" y="278.45" width="55.36" height="3.79" style="fill:#fafafa"></rect><rect x="304.47" y="287.06" width="55.36" height="3.79" style="fill:#fafafa"></rect><rect x="304.47" y="295.67" width="55.36" height="3.79" style="fill:#fafafa"></rect><rect x="304.47" y="304.29" width="55.36" height="3.79" style="fill:#fafafa"></rect><rect x="304.47" y="312.9" width="55.36" height="3.79" style="fill:#fafafa"></rect><rect x="304.47" y="321.51" width="55.36" height="3.79" style="fill:#fafafa"></rect><rect x="304.47" y="330.13" width="55.36" height="3.79" style="fill:#fafafa"></rect><rect x="304.47" y="338.74" width="55.36" height="3.79" style="fill:#fafafa"></rect><rect x="304.47" y="347.35" width="55.36" height="3.79" style="fill:#fafafa"></rect><rect x="304.47" y="355.97" width="55.36" height="3.79" style="fill:#fafafa"></rect><rect x="304.47" y="364.58" width="55.36" height="3.79" style="fill:#fafafa"></rect><rect x="270.77" y="204.12" width="21.86" height="178.27" transform="translate(563.41 586.52) rotate(180)" style="fill:#e6e6e6"></rect><rect x="298.79" y="201.06" width="62.02" height="3.07" style="fill:#f0f0f0"></rect><rect x="281.63" y="201.06" width="17.16" height="3.07" transform="translate(580.41 405.18) rotate(180)" style="fill:#e0e0e0"></rect><path d="M286.35,211.46c0,3.2,1.06,5.79,2.36,5.79s2.37-2.59,2.37-5.79-1.06-5.78-2.37-5.78S286.35,208.27,286.35,211.46Z" style="fill:#f5f5f5"></path><path d="M271.55,211.46c0,3.2.72,5.79,1.6,5.79s1.61-2.59,1.61-5.79-.72-5.78-1.61-5.78S271.55,208.27,271.55,211.46Z" style="fill:#f5f5f5"></path><path d="M286.35,375.06c0,3.2,1.06,5.78,2.36,5.78s2.37-2.58,2.37-5.78-1.06-5.78-2.37-5.78S286.35,371.87,286.35,375.06Z" style="fill:#f5f5f5"></path><path d="M271.55,375.06c0,3.2.72,5.78,1.6,5.78s1.61-2.58,1.61-5.78-.72-5.78-1.61-5.78S271.55,371.87,271.55,375.06Z" style="fill:#f5f5f5"></path><path d="M288.71,212H242.09a11.67,11.67,0,0,1-11.66-11.65V184.6a10.67,10.67,0,0,0-10.65-10.66H182.3v-1h37.48a11.67,11.67,0,0,1,11.65,11.66v15.71A10.67,10.67,0,0,0,242.09,211h46.62Z" style="fill:#e0e0e0"></path><path d="M273.15,375.56H259a11.67,11.67,0,0,1-11.65-11.65V272.37a10.67,10.67,0,0,0-10.66-10.65H182.3v-1h54.43a11.67,11.67,0,0,1,11.66,11.65v91.54A10.67,10.67,0,0,0,259,374.56h14.11Z" style="fill:#e0e0e0"></path><rect x="378.85" y="98.71" width="52.79" height="5.4" style="fill:#f0f0f0"></rect><rect x="364.24" y="98.71" width="14.61" height="5.4" transform="translate(743.09 202.83) rotate(180)" style="fill:#e0e0e0"></rect><rect x="378.85" y="85.49" width="52.79" height="5.4" style="fill:#f0f0f0"></rect><rect x="364.24" y="85.49" width="14.61" height="5.4" transform="translate(743.09 176.37) rotate(180)" style="fill:#e0e0e0"></rect><rect x="378.85" y="72.26" width="52.79" height="5.4" style="fill:#f0f0f0"></rect><rect x="364.24" y="72.26" width="14.61" height="5.4" transform="translate(743.09 149.92) rotate(180)" style="fill:#e0e0e0"></rect><rect x="378.85" y="59.03" width="52.79" height="5.4" style="fill:#f0f0f0"></rect><rect x="364.24" y="59.03" width="14.61" height="5.4" transform="translate(743.09 123.46) rotate(180)" style="fill:#e0e0e0"></rect><g style="opacity:0.4"><rect x="381.83" y="45.59" width="44.55" height="53.13" style="fill:#f0f0f0"></rect><rect x="369.5" y="45.59" width="12.33" height="53.13" transform="translate(751.33 144.3) rotate(180)" style="fill:#e0e0e0"></rect></g><rect x="256.83" y="186.54" width="38.55" height="3.94" style="fill:#f0f0f0"></rect><rect x="246.17" y="186.54" width="10.66" height="3.94" transform="translate(503 377.02) rotate(180)" style="fill:#e0e0e0"></rect><rect x="256.83" y="176.88" width="38.55" height="3.94" style="fill:#f0f0f0"></rect><rect x="246.17" y="176.88" width="10.66" height="3.94" transform="translate(503 357.7) rotate(180)" style="fill:#e0e0e0"></rect><rect x="256.83" y="167.22" width="38.55" height="3.94" style="fill:#f0f0f0"></rect><rect x="246.17" y="167.22" width="10.66" height="3.94" transform="translate(503 338.39) rotate(180)" style="fill:#e0e0e0"></rect><rect x="256.83" y="157.56" width="38.55" height="3.94" style="fill:#f0f0f0"></rect><rect x="246.17" y="157.56" width="10.66" height="3.94" transform="translate(503 319.07) rotate(180)" style="fill:#e0e0e0"></rect><g style="opacity:0.4"><rect x="259.01" y="147.75" width="32.53" height="38.79" style="fill:#f0f0f0"></rect><rect x="250.01" y="147.75" width="9" height="38.79" transform="translate(509.02 334.29) rotate(180)" style="fill:#e0e0e0"></rect></g><rect x="423.1" y="311.55" width="49.68" height="5.08" style="fill:#f0f0f0"></rect><rect x="409.35" y="311.55" width="13.74" height="5.08" transform="translate(832.45 628.18) rotate(180)" style="fill:#e0e0e0"></rect><rect x="423.1" y="299.1" width="49.68" height="5.08" style="fill:#f0f0f0"></rect><rect x="409.35" y="299.1" width="13.74" height="5.08" transform="translate(832.45 603.28) rotate(180)" style="fill:#e0e0e0"></rect><rect x="423.1" y="286.65" width="49.68" height="5.08" style="fill:#f0f0f0"></rect><rect x="409.35" y="286.65" width="13.74" height="5.08" transform="translate(832.45 578.39) rotate(180)" style="fill:#e0e0e0"></rect><rect x="423.1" y="274.21" width="49.68" height="5.08" style="fill:#f0f0f0"></rect><rect x="409.35" y="274.21" width="13.74" height="5.08" transform="translate(832.45 553.49) rotate(180)" style="fill:#e0e0e0"></rect><g style="opacity:0.4"><rect x="425.9" y="261.55" width="41.93" height="50" style="fill:#f0f0f0"></rect><rect x="414.3" y="261.55" width="11.6" height="50" transform="translate(840.21 573.1) rotate(180)" style="fill:#e0e0e0"></rect></g></g><g id="freepik--Shadow--inject-1"><ellipse id="freepik--path--inject-1" cx="250" cy="416.24" rx="193.89" ry="11.32" style="fill:#f5f5f5"></ellipse></g><g id="freepik--Servers--inject-1"><rect x="318.48" y="115.28" width="108.89" height="104.44" style="fill:#BC1919"></rect><rect x="318.48" y="115.28" width="108.89" height="104.44" style="fill:#fff;opacity:0.4"></rect><rect x="353.14" y="115.28" width="74.22" height="104.44" style="fill:#fff;opacity:0.7000000000000001"></rect><rect x="356.85" y="120.61" width="66.8" height="12.93" style="fill:#BC1919"></rect><rect x="356.85" y="136.78" width="66.8" height="12.93" style="fill:#BC1919"></rect><rect x="356.85" y="152.95" width="66.8" height="12.93" style="fill:#BC1919"></rect><rect x="356.85" y="169.11" width="66.8" height="12.93" style="fill:#BC1919"></rect><rect x="356.85" y="185.28" width="66.8" height="12.93" style="fill:#BC1919"></rect><rect x="356.85" y="201.45" width="66.8" height="12.93" style="fill:#BC1919"></rect><rect x="322.37" y="120.61" width="26.89" height="12.93" style="fill:#BC1919"></rect><rect x="322.37" y="136.78" width="26.89" height="12.93" style="fill:#BC1919"></rect><rect x="322.37" y="152.95" width="26.89" height="12.93" style="fill:#BC1919"></rect><rect x="322.37" y="169.11" width="26.89" height="12.93" style="fill:#BC1919"></rect><rect x="322.37" y="185.28" width="26.89" height="12.93" style="fill:#BC1919"></rect><rect x="322.37" y="201.45" width="26.89" height="12.93" style="fill:#BC1919"></rect><rect x="324.85" y="123.2" width="12.62" height="7.76" style="fill:#263238;opacity:0.4"></rect><rect x="324.85" y="139.36" width="12.62" height="7.76" style="fill:#263238;opacity:0.4"></rect><rect x="324.85" y="155.53" width="12.62" height="7.76" style="fill:#263238;opacity:0.4"></rect><rect x="324.85" y="171.7" width="12.62" height="7.76" style="fill:#263238;opacity:0.4"></rect><rect x="324.85" y="187.87" width="12.62" height="7.76" style="fill:#263238;opacity:0.4"></rect><rect x="324.85" y="204.04" width="12.62" height="7.76" style="fill:#263238;opacity:0.4"></rect><rect x="418.82" y="122.29" width="1.56" height="9.56" style="fill:#fff;opacity:0.7000000000000001"></rect><rect x="415.82" y="122.29" width="1.56" height="9.56" style="fill:#fff;opacity:0.7000000000000001"></rect><rect x="412.82" y="122.29" width="1.56" height="9.56" style="fill:#fff;opacity:0.7000000000000001"></rect><rect x="409.82" y="122.29" width="1.56" height="9.56" style="fill:#fff;opacity:0.7000000000000001"></rect><rect x="406.82" y="122.29" width="1.56" height="9.56" style="fill:#fff;opacity:0.7000000000000001"></rect><rect x="418.82" y="138.46" width="1.56" height="9.56" style="fill:#fff;opacity:0.7000000000000001"></rect><rect x="415.82" y="138.46" width="1.56" height="9.56" style="fill:#fff;opacity:0.7000000000000001"></rect><rect x="412.82" y="138.46" width="1.56" height="9.56" style="fill:#fff;opacity:0.7000000000000001"></rect><rect x="409.82" y="138.46" width="1.56" height="9.56" style="fill:#fff;opacity:0.7000000000000001"></rect><rect x="406.82" y="138.46" width="1.56" height="9.56" style="fill:#fff;opacity:0.7000000000000001"></rect><rect x="418.82" y="154.63" width="1.56" height="9.56" style="fill:#fff;opacity:0.7000000000000001"></rect><rect x="415.82" y="154.63" width="1.56" height="9.56" style="fill:#fff;opacity:0.7000000000000001"></rect><rect x="412.82" y="154.63" width="1.56" height="9.56" style="fill:#fff;opacity:0.7000000000000001"></rect><rect x="409.82" y="154.63" width="1.56" height="9.56" style="fill:#fff;opacity:0.7000000000000001"></rect><rect x="406.82" y="154.63" width="1.56" height="9.56" style="fill:#fff;opacity:0.7000000000000001"></rect><rect x="418.82" y="170.8" width="1.56" height="9.57" style="fill:#fff;opacity:0.7000000000000001"></rect><rect x="415.82" y="170.8" width="1.56" height="9.57" style="fill:#fff;opacity:0.7000000000000001"></rect><rect x="412.82" y="170.8" width="1.56" height="9.57" style="fill:#fff;opacity:0.7000000000000001"></rect><rect x="409.82" y="170.8" width="1.56" height="9.57" style="fill:#fff;opacity:0.7000000000000001"></rect><rect x="406.82" y="170.8" width="1.56" height="9.57" style="fill:#fff;opacity:0.7000000000000001"></rect><rect x="418.82" y="186.97" width="1.56" height="9.57" style="fill:#fff;opacity:0.7000000000000001"></rect><rect x="415.82" y="186.97" width="1.56" height="9.57" style="fill:#fff;opacity:0.7000000000000001"></rect><rect x="412.82" y="186.97" width="1.56" height="9.57" style="fill:#fff;opacity:0.7000000000000001"></rect><rect x="409.82" y="186.97" width="1.56" height="9.57" style="fill:#fff;opacity:0.7000000000000001"></rect><rect x="406.82" y="186.97" width="1.56" height="9.57" style="fill:#fff;opacity:0.7000000000000001"></rect><rect x="418.82" y="203.14" width="1.56" height="9.56" style="fill:#fff;opacity:0.7000000000000001"></rect><rect x="415.82" y="203.14" width="1.56" height="9.56" style="fill:#fff;opacity:0.7000000000000001"></rect><rect x="412.82" y="203.14" width="1.56" height="9.56" style="fill:#fff;opacity:0.7000000000000001"></rect><rect x="409.82" y="203.14" width="1.56" height="9.56" style="fill:#fff;opacity:0.7000000000000001"></rect><rect x="406.82" y="203.14" width="1.56" height="9.56" style="fill:#fff;opacity:0.7000000000000001"></rect><path d="M381.44,207.92a1.59,1.59,0,1,1,1.59,1.59A1.59,1.59,0,0,1,381.44,207.92Z" style="fill:#fff;opacity:0.2"></path><path d="M371.44,207.92a1.59,1.59,0,1,1,1.59,1.59A1.59,1.59,0,0,1,371.44,207.92Z" style="fill:#fff;opacity:0.2"></path><path d="M361.44,207.92a1.59,1.59,0,1,1,1.59,1.59A1.59,1.59,0,0,1,361.44,207.92Z" style="fill:#fff;opacity:0.4"></path><path d="M381.44,191.75a1.59,1.59,0,1,1,1.59,1.59A1.59,1.59,0,0,1,381.44,191.75Z" style="fill:#fff;opacity:0.4"></path><path d="M371.44,191.75a1.59,1.59,0,1,1,1.59,1.59A1.59,1.59,0,0,1,371.44,191.75Z" style="fill:#fff;opacity:0.2"></path><path d="M361.44,191.75a1.59,1.59,0,1,1,1.59,1.59A1.59,1.59,0,0,1,361.44,191.75Z" style="fill:#fff;opacity:0.4"></path><path d="M381.44,175.58a1.59,1.59,0,1,1,1.59,1.59A1.59,1.59,0,0,1,381.44,175.58Z" style="fill:#fff;opacity:0.2"></path><path d="M371.44,175.58a1.59,1.59,0,1,1,1.59,1.59A1.59,1.59,0,0,1,371.44,175.58Z" style="fill:#fff;opacity:0.4"></path><path d="M361.44,175.58a1.59,1.59,0,1,1,1.59,1.59A1.59,1.59,0,0,1,361.44,175.58Z" style="fill:#fff;opacity:0.2"></path><path d="M381.44,159.41A1.59,1.59,0,1,1,383,161,1.59,1.59,0,0,1,381.44,159.41Z" style="fill:#fff;opacity:0.4"></path><path d="M371.44,159.41A1.59,1.59,0,1,1,373,161,1.59,1.59,0,0,1,371.44,159.41Z" style="fill:#fff;opacity:0.2"></path><path d="M361.44,159.41A1.59,1.59,0,1,1,363,161,1.59,1.59,0,0,1,361.44,159.41Z" style="fill:#fff;opacity:0.2"></path><path d="M381.44,143.24a1.59,1.59,0,1,1,1.59,1.59A1.59,1.59,0,0,1,381.44,143.24Z" style="fill:#fff;opacity:0.2"></path><path d="M371.44,143.24a1.59,1.59,0,1,1,1.59,1.59A1.59,1.59,0,0,1,371.44,143.24Z" style="fill:#fff;opacity:0.4"></path><path d="M361.44,143.24a1.59,1.59,0,1,1,1.59,1.59A1.59,1.59,0,0,1,361.44,143.24Z" style="fill:#fff;opacity:0.4"></path><path d="M381.44,127.08a1.59,1.59,0,1,1,1.59,1.58A1.59,1.59,0,0,1,381.44,127.08Z" style="fill:#fff;opacity:0.4"></path><path d="M371.44,127.08a1.59,1.59,0,1,1,1.59,1.58A1.59,1.59,0,0,1,371.44,127.08Z" style="fill:#fff;opacity:0.2"></path><path d="M361.44,127.08a1.59,1.59,0,1,1,1.59,1.58A1.59,1.59,0,0,1,361.44,127.08Z" style="fill:#fff;opacity:0.4"></path><rect x="117.75" y="311.79" width="108.89" height="104.44" style="fill:#BC1919"></rect><rect x="117.75" y="311.79" width="108.89" height="104.44" style="fill:#fff;opacity:0.4"></rect><rect x="152.41" y="311.79" width="74.22" height="104.44" style="fill:#fff;opacity:0.7000000000000001"></rect><rect x="156.12" y="317.13" width="66.8" height="12.93" style="fill:#BC1919"></rect><rect x="156.12" y="333.3" width="66.8" height="12.93" style="fill:#BC1919"></rect><rect x="156.12" y="349.46" width="66.8" height="12.93" style="fill:#BC1919"></rect><rect x="156.12" y="365.63" width="66.8" height="12.93" style="fill:#BC1919"></rect><rect x="156.12" y="381.8" width="66.8" height="12.93" style="fill:#BC1919"></rect><rect x="156.12" y="397.97" width="66.8" height="12.93" style="fill:#BC1919"></rect><rect x="121.64" y="317.13" width="26.89" height="12.93" style="fill:#BC1919"></rect><rect x="121.64" y="333.3" width="26.89" height="12.93" style="fill:#BC1919"></rect><rect x="121.64" y="349.46" width="26.89" height="12.93" style="fill:#BC1919"></rect><rect x="121.64" y="365.63" width="26.89" height="12.93" style="fill:#BC1919"></rect><rect x="121.64" y="381.8" width="26.89" height="12.93" style="fill:#BC1919"></rect><rect x="121.64" y="397.97" width="26.89" height="12.93" style="fill:#BC1919"></rect><rect x="124.12" y="319.71" width="12.62" height="7.76" style="fill:#263238;opacity:0.4"></rect><rect x="124.12" y="335.88" width="12.62" height="7.76" style="fill:#263238;opacity:0.4"></rect><rect x="124.12" y="352.05" width="12.62" height="7.76" style="fill:#263238;opacity:0.4"></rect><rect x="124.12" y="368.22" width="12.62" height="7.76" style="fill:#263238;opacity:0.4"></rect><rect x="124.12" y="384.39" width="12.62" height="7.76" style="fill:#263238;opacity:0.4"></rect><rect x="124.12" y="400.56" width="12.62" height="7.76" style="fill:#263238;opacity:0.4"></rect><rect x="218.09" y="318.81" width="1.56" height="9.57" style="fill:#fff;opacity:0.7000000000000001"></rect><rect x="215.09" y="318.81" width="1.56" height="9.57" style="fill:#fff;opacity:0.7000000000000001"></rect><rect x="212.09" y="318.81" width="1.56" height="9.57" style="fill:#fff;opacity:0.7000000000000001"></rect><rect x="209.09" y="318.81" width="1.56" height="9.57" style="fill:#fff;opacity:0.7000000000000001"></rect><rect x="206.09" y="318.81" width="1.56" height="9.57" style="fill:#fff;opacity:0.7000000000000001"></rect><rect x="218.09" y="334.98" width="1.56" height="9.56" style="fill:#fff;opacity:0.7000000000000001"></rect><rect x="215.09" y="334.98" width="1.56" height="9.56" style="fill:#fff;opacity:0.7000000000000001"></rect><rect x="212.09" y="334.98" width="1.56" height="9.56" style="fill:#fff;opacity:0.7000000000000001"></rect><rect x="209.09" y="334.98" width="1.56" height="9.56" style="fill:#fff;opacity:0.7000000000000001"></rect><rect x="206.09" y="334.98" width="1.56" height="9.56" style="fill:#fff;opacity:0.7000000000000001"></rect><rect x="218.09" y="351.15" width="1.56" height="9.56" style="fill:#fff;opacity:0.7000000000000001"></rect><rect x="215.09" y="351.15" width="1.56" height="9.56" style="fill:#fff;opacity:0.7000000000000001"></rect><rect x="212.09" y="351.15" width="1.56" height="9.56" style="fill:#fff;opacity:0.7000000000000001"></rect><rect x="209.09" y="351.15" width="1.56" height="9.56" style="fill:#fff;opacity:0.7000000000000001"></rect><rect x="206.09" y="351.15" width="1.56" height="9.56" style="fill:#fff;opacity:0.7000000000000001"></rect><rect x="218.09" y="367.32" width="1.56" height="9.57" style="fill:#fff;opacity:0.7000000000000001"></rect><rect x="215.09" y="367.32" width="1.56" height="9.57" style="fill:#fff;opacity:0.7000000000000001"></rect><rect x="212.09" y="367.32" width="1.56" height="9.57" style="fill:#fff;opacity:0.7000000000000001"></rect><rect x="209.09" y="367.32" width="1.56" height="9.57" style="fill:#fff;opacity:0.7000000000000001"></rect><rect x="206.09" y="367.32" width="1.56" height="9.57" style="fill:#fff;opacity:0.7000000000000001"></rect><rect x="218.09" y="383.49" width="1.56" height="9.56" style="fill:#fff;opacity:0.7000000000000001"></rect><rect x="215.09" y="383.49" width="1.56" height="9.56" style="fill:#fff;opacity:0.7000000000000001"></rect><rect x="212.09" y="383.49" width="1.56" height="9.56" style="fill:#fff;opacity:0.7000000000000001"></rect><rect x="209.09" y="383.49" width="1.56" height="9.56" style="fill:#fff;opacity:0.7000000000000001"></rect><rect x="206.09" y="383.49" width="1.56" height="9.56" style="fill:#fff;opacity:0.7000000000000001"></rect><rect x="218.09" y="399.65" width="1.56" height="9.57" style="fill:#fff;opacity:0.7000000000000001"></rect><rect x="215.09" y="399.65" width="1.56" height="9.57" style="fill:#fff;opacity:0.7000000000000001"></rect><rect x="212.09" y="399.65" width="1.56" height="9.57" style="fill:#fff;opacity:0.7000000000000001"></rect><rect x="209.09" y="399.65" width="1.56" height="9.57" style="fill:#fff;opacity:0.7000000000000001"></rect><rect x="206.09" y="399.65" width="1.56" height="9.57" style="fill:#fff;opacity:0.7000000000000001"></rect><path d="M163.89,323.59A1.59,1.59,0,1,1,162.3,322,1.59,1.59,0,0,1,163.89,323.59Z" style="fill:#fff;opacity:0.2"></path><path d="M173.89,323.59A1.59,1.59,0,1,1,172.3,322,1.59,1.59,0,0,1,173.89,323.59Z" style="fill:#fff;opacity:0.2"></path><path d="M183.89,323.59A1.59,1.59,0,1,1,182.3,322,1.59,1.59,0,0,1,183.89,323.59Z" style="fill:#fff;opacity:0.4"></path><path d="M163.89,339.76a1.59,1.59,0,1,1-1.59-1.59A1.59,1.59,0,0,1,163.89,339.76Z" style="fill:#fff;opacity:0.4"></path><path d="M173.89,339.76a1.59,1.59,0,1,1-1.59-1.59A1.59,1.59,0,0,1,173.89,339.76Z" style="fill:#fff;opacity:0.2"></path><path d="M183.89,339.76a1.59,1.59,0,1,1-1.59-1.59A1.59,1.59,0,0,1,183.89,339.76Z" style="fill:#fff;opacity:0.4"></path><path d="M163.89,355.93a1.59,1.59,0,1,1-1.59-1.59A1.59,1.59,0,0,1,163.89,355.93Z" style="fill:#fff;opacity:0.2"></path><path d="M173.89,355.93a1.59,1.59,0,1,1-1.59-1.59A1.59,1.59,0,0,1,173.89,355.93Z" style="fill:#fff;opacity:0.4"></path><path d="M183.89,355.93a1.59,1.59,0,1,1-1.59-1.59A1.59,1.59,0,0,1,183.89,355.93Z" style="fill:#fff;opacity:0.2"></path><path d="M163.89,372.1a1.59,1.59,0,1,1-1.59-1.59A1.59,1.59,0,0,1,163.89,372.1Z" style="fill:#fff;opacity:0.4"></path><path d="M173.89,372.1a1.59,1.59,0,1,1-1.59-1.59A1.59,1.59,0,0,1,173.89,372.1Z" style="fill:#fff;opacity:0.2"></path><path d="M183.89,372.1a1.59,1.59,0,1,1-1.59-1.59A1.59,1.59,0,0,1,183.89,372.1Z" style="fill:#fff;opacity:0.2"></path><path d="M163.89,388.27a1.59,1.59,0,1,1-1.59-1.59A1.59,1.59,0,0,1,163.89,388.27Z" style="fill:#fff;opacity:0.2"></path><path d="M173.89,388.27a1.59,1.59,0,1,1-1.59-1.59A1.59,1.59,0,0,1,173.89,388.27Z" style="fill:#fff;opacity:0.4"></path><path d="M183.89,388.27a1.59,1.59,0,1,1-1.59-1.59A1.59,1.59,0,0,1,183.89,388.27Z" style="fill:#fff;opacity:0.4"></path><path d="M163.89,404.44a1.59,1.59,0,1,1-1.59-1.59A1.59,1.59,0,0,1,163.89,404.44Z" style="fill:#fff;opacity:0.4"></path><path d="M173.89,404.44a1.59,1.59,0,1,1-1.59-1.59A1.59,1.59,0,0,1,173.89,404.44Z" style="fill:#fff;opacity:0.2"></path><path d="M183.89,404.44a1.59,1.59,0,1,1-1.59-1.59A1.59,1.59,0,0,1,183.89,404.44Z" style="fill:#fff;opacity:0.4"></path><rect x="384.51" y="219.72" width="2" height="91.62" style="fill:#BC1919"></rect><path d="M327.33,365h-11.2v-2h11.2Zm-23.2,0h-12v-2h12Zm-24,0h-12v-2h12Zm-24,0h-12v-2h12Z" style="fill:#BC1919;opacity:0.7000000000000001"></path><path d="M352.67,308.07l-14.43,70.78a4.5,4.5,0,0,0,5.84,5.17l68.51-22.9a4.49,4.49,0,0,0,1.56-7.63L360.07,305.6A4.5,4.5,0,0,0,352.67,308.07Z" style="fill:#BC1919"></path><path d="M346.73,372.75,358.1,317a1.84,1.84,0,0,1,3-1l42.59,37.71a1.83,1.83,0,0,1-.64,3.11l-53.95,18A1.83,1.83,0,0,1,346.73,372.75Z" style="fill:#fff"></path><path d="M360.49,333.66l1.57,4.71.09.22,5.34,11.22a2,2,0,0,0,2.4,1l2.09-.7a2,2,0,0,0,1.3-2.25l-2.44-12.19-.06-.23-1.58-4.71a2,2,0,0,0-2.48-1.24l-5,1.66A2,2,0,0,0,360.49,333.66Z" style="fill:#263238"></path><path d="M376.36,355.47a3.54,3.54,0,1,1-4.48-2.24A3.53,3.53,0,0,1,376.36,355.47Z" style="fill:#263238"></path></g><g id="freepik--error-504--inject-1"><path d="M57.34,75.38h19v6.37H63.45l-.68,4.31a14.34,14.34,0,0,1,2.63-.94A11.51,11.51,0,0,1,68,84.81a9.63,9.63,0,0,1,7,2.61A8.74,8.74,0,0,1,77.66,94a11.13,11.13,0,0,1-1.38,5.35,9.38,9.38,0,0,1-3.92,3.92,13.78,13.78,0,0,1-6.5,1.35,19.7,19.7,0,0,1-4.87-.53,10,10,0,0,1-3.45-1.61,9.73,9.73,0,0,1-2.3-2.42,12.56,12.56,0,0,1-1.47-3.37l8.08-.88a4.84,4.84,0,0,0,1.37,2.94,3.59,3.59,0,0,0,2.57,1,3.48,3.48,0,0,0,2.75-1.26,5.67,5.67,0,0,0,1.09-3.77,5.48,5.48,0,0,0-1.1-3.77,3.8,3.8,0,0,0-2.92-1.19,4.68,4.68,0,0,0-2.23.57,6.34,6.34,0,0,0-1.77,1.49l-6.8-1Z" style="fill:#263238"></path><path d="M80.88,89.63q0-8.19,3-11.46t9-3.28a13.36,13.36,0,0,1,4.76.72,8.91,8.91,0,0,1,3,1.86,10.15,10.15,0,0,1,1.85,2.41,12.42,12.42,0,0,1,1.09,3,27.32,27.32,0,0,1,.8,6.7q0,7.83-2.64,11.45T92.6,104.6a12.75,12.75,0,0,1-5.86-1.15,9.46,9.46,0,0,1-3.67-3.39,13,13,0,0,1-1.62-4.34A30.17,30.17,0,0,1,80.88,89.63Zm7.91,0c0,3.66.33,6.16,1,7.5a3.06,3.06,0,0,0,2.82,2,2.92,2.92,0,0,0,2.1-.86A5.26,5.26,0,0,0,96,95.61a28.3,28.3,0,0,0,.42-5.74c0-3.82-.33-6.38-1-7.7a3.11,3.11,0,0,0-2.91-2,3,3,0,0,0-2.87,2C89.09,83.55,88.79,86,88.79,89.65Z" style="fill:#263238"></path><path d="M121.37,98.74H106.82V92.18l14.55-17.29h6.95V92.55h3.61v6.19h-3.61v5.37h-6.95Zm0-6.19v-9l-7.69,9Z" style="fill:#263238"></path><path d="M149.08,75.38h23.79v6.14H158v4.56h13.82v5.86H158v5.67H173.3v6.5H149.08Z" style="fill:#263238"></path><path d="M177.63,83.3h7.47v3.41a8.3,8.3,0,0,1,2.22-3,4.74,4.74,0,0,1,2.83-.83,8.48,8.48,0,0,1,3.87,1.1l-2.47,5.68a6.34,6.34,0,0,0-2.24-.59,2.78,2.78,0,0,0-2.43,1.3c-.82,1.21-1.23,3.49-1.23,6.82v7h-8Z" style="fill:#263238"></path><path d="M197.13,83.3h7.47v3.41a8.3,8.3,0,0,1,2.22-3,4.74,4.74,0,0,1,2.83-.83,8.48,8.48,0,0,1,3.87,1.1l-2.47,5.68a6.34,6.34,0,0,0-2.24-.59,2.78,2.78,0,0,0-2.43,1.3c-.82,1.21-1.23,3.49-1.23,6.82v7h-8Z" style="fill:#263238"></path><path d="M214.53,93.77a10.43,10.43,0,0,1,3.22-7.85,12,12,0,0,1,8.68-3.09q6.25,0,9.45,3.63a11.35,11.35,0,0,1-.62,15.06q-3.18,3.06-8.81,3.06a12.32,12.32,0,0,1-8.11-2.54A10.23,10.23,0,0,1,214.53,93.77Zm8,0a6.28,6.28,0,0,0,1.13,4.11,3.68,3.68,0,0,0,5.66,0,6.47,6.47,0,0,0,1.11-4.21,6.11,6.11,0,0,0-1.12-4,3.46,3.46,0,0,0-2.76-1.32,3.6,3.6,0,0,0-2.88,1.34A6.22,6.22,0,0,0,222.53,93.75Z" style="fill:#263238"></path><path d="M242.36,83.3h7.47v3.41a8.3,8.3,0,0,1,2.22-3,4.75,4.75,0,0,1,2.84-.83,8.47,8.47,0,0,1,3.86,1.1l-2.47,5.68A6.34,6.34,0,0,0,254,89a2.78,2.78,0,0,0-2.43,1.3c-.82,1.21-1.23,3.49-1.23,6.82v7h-8Z" style="fill:#263238"></path></g><g id="freepik--gateway-timeout--inject-1"><path d="M64.7,127.77v-2.49h9v7.89a15.89,15.89,0,0,1-4.28,2.48,12.62,12.62,0,0,1-4.53.84,12.12,12.12,0,0,1-5.69-1.34,9,9,0,0,1-3.87-3.88,12.27,12.27,0,0,1-1.3-5.68,13.1,13.1,0,0,1,1.3-5.79,8.69,8.69,0,0,1,3.73-4,11.74,11.74,0,0,1,5.62-1.3,11.14,11.14,0,0,1,4.17.75,6.87,6.87,0,0,1,2.92,2.08,9.37,9.37,0,0,1,1.61,3.48l-2.54.7a7.94,7.94,0,0,0-1.19-2.56,4.81,4.81,0,0,0-2-1.48,7.32,7.32,0,0,0-2.93-.56,8.68,8.68,0,0,0-3.34.58A6.43,6.43,0,0,0,59.09,119a7.56,7.56,0,0,0-1.34,2.1,11.17,11.17,0,0,0-.81,4.28,10.42,10.42,0,0,0,1,4.76A6.27,6.27,0,0,0,60.77,133a8.81,8.81,0,0,0,4,.93,9.62,9.62,0,0,0,3.57-.7A9.05,9.05,0,0,0,71,131.73v-4Z" style="fill:#BC1919"></path><path d="M87.57,134.21A9.59,9.59,0,0,1,84.78,136a8.22,8.22,0,0,1-2.88.5,5.59,5.59,0,0,1-3.9-1.24,4.07,4.07,0,0,1-1.36-3.17,4.22,4.22,0,0,1,.51-2.06,4.17,4.17,0,0,1,1.35-1.5,6.21,6.21,0,0,1,1.88-.86,16.7,16.7,0,0,1,2.32-.39,23.4,23.4,0,0,0,4.65-.9c0-.36,0-.59,0-.68a2.88,2.88,0,0,0-.74-2.25,4.37,4.37,0,0,0-3-.89,4.6,4.6,0,0,0-2.72.65,3.91,3.91,0,0,0-1.3,2.28l-2.55-.34a6.28,6.28,0,0,1,1.14-2.65,5,5,0,0,1,2.31-1.55,10.07,10.07,0,0,1,3.49-.55,9.23,9.23,0,0,1,3.21.47A4.24,4.24,0,0,1,89.05,122a4,4,0,0,1,.81,1.77,14.46,14.46,0,0,1,.13,2.41v3.48a36.77,36.77,0,0,0,.17,4.6,5.7,5.7,0,0,0,.66,1.85H88.09A5.57,5.57,0,0,1,87.57,134.21Zm-.22-5.83a18.68,18.68,0,0,1-4.26,1,10.54,10.54,0,0,0-2.28.52,2.4,2.4,0,0,0-1,.85,2.25,2.25,0,0,0-.36,1.24,2.2,2.2,0,0,0,.79,1.74,3.39,3.39,0,0,0,2.32.7,5.4,5.4,0,0,0,2.68-.66A4,4,0,0,0,86.93,132a6.31,6.31,0,0,0,.42-2.61Z" style="fill:#BC1919"></path><path d="M99.74,133.78l.38,2.3a9.48,9.48,0,0,1-2,.24,4.46,4.46,0,0,1-2.2-.45,2.54,2.54,0,0,1-1.1-1.18,9.47,9.47,0,0,1-.32-3.09v-8.86H92.6v-2h1.92V116.9l2.59-1.57v5.38h2.63v2H97.11v9a4.55,4.55,0,0,0,.14,1.43,1,1,0,0,0,.45.51,1.71,1.71,0,0,0,.89.19A8.09,8.09,0,0,0,99.74,133.78Z" style="fill:#BC1919"></path><path d="M112.84,131.15l2.69.34a6.57,6.57,0,0,1-2.36,3.67,8,8,0,0,1-9.77-.78,8.13,8.13,0,0,1-2-5.84,8.52,8.52,0,0,1,2-6,6.8,6.8,0,0,1,5.2-2.15,6.54,6.54,0,0,1,5,2.11,8.32,8.32,0,0,1,2,5.91c0,.16,0,.39,0,.7H104.12a6,6,0,0,0,1.44,3.89,4.27,4.27,0,0,0,3.22,1.35,4,4,0,0,0,2.45-.76A5,5,0,0,0,112.84,131.15Zm-8.57-4.22h8.6a5.26,5.26,0,0,0-1-2.91,4,4,0,0,0-3.23-1.51,4.17,4.17,0,0,0-3,1.2A4.74,4.74,0,0,0,104.27,126.93Z" style="fill:#BC1919"></path><path d="M121.66,136.11l-4.72-15.4h2.7l2.45,8.89.91,3.31c0-.16.31-1.22.8-3.18l2.45-9h2.69l2.3,8.94.77,2.94.89-3,2.64-8.91h2.53l-4.81,15.4h-2.71l-2.46-9.22-.59-2.63-3.12,11.85Z" style="fill:#BC1919"></path><path d="M150.31,134.21a9.46,9.46,0,0,1-2.79,1.75,8.22,8.22,0,0,1-2.88.5,5.59,5.59,0,0,1-3.9-1.24,4.07,4.07,0,0,1-1.36-3.17,4.22,4.22,0,0,1,.51-2.06,4.27,4.27,0,0,1,1.35-1.5,6.21,6.21,0,0,1,1.88-.86,17,17,0,0,1,2.32-.39,23.69,23.69,0,0,0,4.66-.9c0-.36,0-.59,0-.68a2.88,2.88,0,0,0-.74-2.25,4.37,4.37,0,0,0-3-.89,4.6,4.6,0,0,0-2.72.65,3.91,3.91,0,0,0-1.3,2.28l-2.55-.34a6.28,6.28,0,0,1,1.14-2.65,5,5,0,0,1,2.31-1.55,10.11,10.11,0,0,1,3.49-.55,9.23,9.23,0,0,1,3.21.47,4.18,4.18,0,0,1,1.81,1.17,4.09,4.09,0,0,1,.82,1.77,15.67,15.67,0,0,1,.13,2.41v3.48a37.59,37.59,0,0,0,.16,4.6,5.7,5.7,0,0,0,.66,1.85h-2.72A5.36,5.36,0,0,1,150.31,134.21Zm-.21-5.83a18.93,18.93,0,0,1-4.27,1,10.54,10.54,0,0,0-2.28.52,2.32,2.32,0,0,0-1,.85,2.18,2.18,0,0,0-.37,1.24,2.23,2.23,0,0,0,.79,1.74,3.39,3.39,0,0,0,2.32.7,5.38,5.38,0,0,0,2.68-.66,4.08,4.08,0,0,0,1.73-1.81,6.31,6.31,0,0,0,.42-2.61Z" style="fill:#BC1919"></path><path d="M156.67,142.05l-.29-2.46a5.58,5.58,0,0,0,1.49.24,2.9,2.9,0,0,0,1.39-.29,2.41,2.41,0,0,0,.86-.82,13.08,13.08,0,0,0,.8-1.94c0-.14.12-.36.23-.64l-5.85-15.43h2.82l3.2,8.92c.42,1.13.79,2.32,1.12,3.57a36.6,36.6,0,0,1,1.07-3.51l3.29-9h2.61l-5.85,15.67a30.55,30.55,0,0,1-1.47,3.49,5.18,5.18,0,0,1-1.59,1.89,3.8,3.8,0,0,1-2.15.61A5.31,5.31,0,0,1,156.67,142.05Z" style="fill:#BC1919"></path><path d="M185.59,133.78l.37,2.3a9.32,9.32,0,0,1-2,.24,4.43,4.43,0,0,1-2.2-.45,2.57,2.57,0,0,1-1.11-1.18,9.56,9.56,0,0,1-.31-3.09v-8.86h-1.92v-2h1.92V116.9l2.59-1.57v5.38h2.63v2H183v9a4.55,4.55,0,0,0,.14,1.43,1,1,0,0,0,.45.51,1.68,1.68,0,0,0,.89.19A8.21,8.21,0,0,0,185.59,133.78Z" style="fill:#BC1919"></path><path d="M188.15,117.85v-3h2.61v3Zm0,18.26v-15.4h2.61v15.4Z" style="fill:#BC1919"></path><path d="M194.74,136.11v-15.4h2.33v2.16a5.62,5.62,0,0,1,1.93-1.82,5.41,5.41,0,0,1,2.74-.69,5.11,5.11,0,0,1,2.81.71,3.83,3.83,0,0,1,1.54,2,5.54,5.54,0,0,1,4.76-2.7,4.74,4.74,0,0,1,3.53,1.27,5.44,5.44,0,0,1,1.23,3.91v10.57H213v-9.7a7.13,7.13,0,0,0-.25-2.25,2.21,2.21,0,0,0-.92-1.11,2.9,2.9,0,0,0-1.57-.42,3.66,3.66,0,0,0-2.7,1.08,4.78,4.78,0,0,0-1.07,3.46v8.94h-2.61v-10a4.37,4.37,0,0,0-.64-2.61,2.41,2.41,0,0,0-2.09-.87,3.74,3.74,0,0,0-2,.58,3.24,3.24,0,0,0-1.36,1.69,9.6,9.6,0,0,0-.42,3.22v8Z" style="fill:#BC1919"></path><path d="M230,131.15l2.7.34a6.57,6.57,0,0,1-2.36,3.67,8,8,0,0,1-9.77-.78,8.13,8.13,0,0,1-2-5.84,8.52,8.52,0,0,1,2-6,6.8,6.8,0,0,1,5.19-2.15,6.56,6.56,0,0,1,5,2.11,8.32,8.32,0,0,1,2,5.91c0,.16,0,.39,0,.7H221.31a5.9,5.9,0,0,0,1.43,3.89,4.28,4.28,0,0,0,3.22,1.35,4,4,0,0,0,2.45-.76A4.9,4.9,0,0,0,230,131.15Zm-8.57-4.22h8.6a5.19,5.19,0,0,0-1-2.91,4,4,0,0,0-3.24-1.51,4.15,4.15,0,0,0-3,1.2A4.79,4.79,0,0,0,221.45,126.93Z" style="fill:#BC1919"></path><path d="M235,128.41q0-4.27,2.38-6.33a7.12,7.12,0,0,1,4.84-1.72,6.92,6.92,0,0,1,5.19,2.08,7.92,7.92,0,0,1,2,5.76,10.21,10.21,0,0,1-.89,4.67,6.33,6.33,0,0,1-2.6,2.65,7.53,7.53,0,0,1-3.72.94,6.93,6.93,0,0,1-5.23-2.07A8.29,8.29,0,0,1,235,128.41Zm2.68,0a6.55,6.55,0,0,0,1.29,4.43,4.3,4.3,0,0,0,6.49,0,6.73,6.73,0,0,0,1.29-4.51,6.38,6.38,0,0,0-1.3-4.33,4.3,4.3,0,0,0-6.48,0A6.53,6.53,0,0,0,237.71,128.41Z" style="fill:#BC1919"></path><path d="M262.61,136.11v-2.26a5.63,5.63,0,0,1-4.88,2.61,6.22,6.22,0,0,1-2.55-.52,4.22,4.22,0,0,1-1.75-1.31,4.88,4.88,0,0,1-.81-1.94,12.89,12.89,0,0,1-.16-2.44v-9.54h2.61v8.54a15.82,15.82,0,0,0,.16,2.76,2.71,2.71,0,0,0,1,1.62,3.22,3.22,0,0,0,2,.58,4.28,4.28,0,0,0,2.2-.6,3.27,3.27,0,0,0,1.46-1.64,8.1,8.1,0,0,0,.43-3v-8.25H265v15.4Z" style="fill:#BC1919"></path><path d="M274.74,133.78l.38,2.3a9.48,9.48,0,0,1-2,.24,4.46,4.46,0,0,1-2.2-.45,2.54,2.54,0,0,1-1.1-1.18,9.19,9.19,0,0,1-.32-3.09v-8.86H267.6v-2h1.92V116.9l2.59-1.57v5.38h2.63v2h-2.63v9a4.55,4.55,0,0,0,.14,1.43,1,1,0,0,0,.45.51,1.71,1.71,0,0,0,.89.19A8.21,8.21,0,0,0,274.74,133.78Z" style="fill:#BC1919"></path></g></svg>